:version 1.10
:name ASF
:units
  mass 1
  length 1
  angle deg
:documentation
  ASF file generated by Kaydara
:root
  axis xyz
  order  tx ty tz rx ry rz
  position 0 0 0
  orientation 0 0 0
:bonedata
  begin
    id 1
    name LeftUpLegDummy
    direction 1 -2.30186e-007 -8.31532e-007
    length 2.93387
    axis 0 0 0 xyz
  end
  begin
    id 2
    name LeftUpLeg
    direction -1.82929e-007 -1 -1.48925e-009
    length 17.3336
    axis -3.48766 0.00143442 -0.000521554 xyz
    dof rx ry rz
  end
  begin
    id 3
    name LeftLeg
    direction -1.82929e-007 -1 -5.23717e-011
    length 14.9995
    axis 3.68178 -0.00654042 -0.000282425 xyz
    dof rx ry rz
  end
  begin
    id 4
    name LeftFoot
    direction 8.31532e-007 -4.54534e-011 1
    length 6.74421
    axis 1.87234e-006 4.66016e-005 -5.96866e-006 xyz
    dof rx ry rz
  end
  begin
    id 5
    name LeftToes
    direction 0.00818058 -0.00485161 0.999955
    length 3.85048
    axis 1.06247e-005 4.65869e-005 -5.96999e-006 xyz
    dof rx ry rz
  end
  begin
    id 6
    name SpineDummy
    direction -5.8607e-008 0.943407 -0.331637
    length 5.93572
    axis 0 0 0 xyz
  end
  begin
    id 7
    name Spine
    direction -1.04988e-007 0.999988 0.00495137
    length 10.1015
    axis -0.001389 0.000121417 6.61666e-006 xyz
    dof rx ry rz
  end
  begin
    id 8
    name Spine1
    direction 0 0 0
    length 0
    axis -0.001389 0.00012144 6.56766e-006 xyz
    dof rx ry rz
  end
  begin
    id 9
    name RightShoulderDummy
    direction -0.98348 0.17941 -0.0240696
    length 3.59882
    axis -0.001389 0.00012144 6.56766e-006 xyz
  end
  begin
    id 10
    name RightShoulder
    direction -0.978693 0.204882 0.0135597
    length 2.70001
    axis 0.215806 0.000203631 -0.00679732 xyz
    dof rx ry rz
  end
  begin
    id 11
    name RightArm
    direction -1 3.85509e-006 8.31394e-007
    length 10.2459
    axis -23.2009 -0.134239 -0.964098 xyz
    dof rx ry rz
  end
  begin
    id 12
    name RightForeArm
    direction -1 3.85569e-006 8.3129e-007
    length 8.16799
    axis -9.92322 0.0658061 0.17887 xyz
    dof rx ry rz
  end
  begin
    id 13
    name RightHand
    direction -0.992843 -0.0414604 0.112003
    length 5.28593
    axis -0.00960638 0.00330669 -0.185225 xyz
    dof rx ry rz
  end
  begin
    id 14
    name LeftShoulder1Dummy
    direction 0.983523 0.179172 -0.0240748
    length 3.59866
    axis -0.001389 0.00012144 6.56766e-006 xyz
  end
  begin
    id 15
    name LeftShoulder1
    direction 0.978627 0.205195 0.0135605
    length 2.70019
    axis -0.001389 0.00012144 6.57583e-006 xyz
    dof rx ry rz
  end
  begin
    id 16
    name LeftArm
    direction 1 3.51895e-006 -8.60188e-007
    length 10.2459
    axis -23.1894 0.134785 0.967513 xyz
    dof rx ry rz
  end
  begin
    id 17
    name LeftForeArm
    direction 1 3.51921e-006 -7.32029e-007
    length 8.16799
    axis -9.91835 -0.0656957 -0.177789 xyz
    dof rx ry rz
  end
  begin
    id 18
    name LeftHand
    direction 0.992938 -0.0411636 0.11126
    length 5.32135
    axis -0.00960237 -0.00340661 0.185177 xyz
    dof rx ry rz
  end
  begin
    id 19
    name HEadDummy
    direction 1.01974e-006 0.999861 -0.016675
    length 2.99946
    axis -0.001389 0.00012144 6.56766e-006 xyz
  end
  begin
    id 20
    name HEad
    direction -0.0222689 0.980941 0.193023
    length 5.12695
    axis -0.001389 0.00012144 6.56766e-006 xyz
    dof rx ry rz
  end
  begin
    id 21
    name RightUpLegDummy
    direction -1 2.30186e-007 8.31532e-007
    length 2.93387
    axis 0 0 0 xyz
  end
  begin
    id 22
    name RightUpLeg
    direction -1.82966e-007 -1 1.56832e-007
    length 17.3336
    axis -3.4909 -0.000906625 0.00028951 xyz
    dof rx ry rz
  end
  begin
    id 23
    name RightLeg
    direction -1.82786e-007 -1 -1.80317e-007
    length 14.9995
    axis 3.68513 0.0193739 -0.131021 xyz
    dof rx ry rz
  end
  begin
    id 24
    name RightFoot
    direction 8.31721e-007 -4.63324e-011 1
    length 6.74421
    axis 4.81691e-005 -0.120479 -0.188785 xyz
    dof rx ry rz
  end
  begin
    id 25
    name RightToes
    direction 0.00124746 -0.014064 0.9999
    length 3.85082
    axis 0.000481921 0.542163 -0.142575 xyz
    dof rx ry rz
  end
:hierarchy
  begin
    root LeftUpLegDummy SpineDummy RightUpLegDummy
    LeftUpLegDummy LeftUpLeg
    LeftUpLeg LeftLeg
    LeftLeg LeftFoot
    LeftFoot LeftToes
    SpineDummy Spine
    Spine Spine1
    Spine1 RightShoulderDummy LeftShoulder1Dummy HEadDummy
    RightShoulderDummy RightShoulder
    RightShoulder RightArm
    RightArm RightForeArm
    RightForeArm RightHand
    LeftShoulder1Dummy LeftShoulder1
    LeftShoulder1 LeftArm
    LeftArm LeftForeArm
    LeftForeArm LeftHand
    HEadDummy HEad
    RightUpLegDummy RightUpLeg
    RightUpLeg RightLeg
    RightLeg RightFoot
    RightFoot RightToes
  end

:SAMPLES-PER-SECOND 30
:FULLY-SPECIFIED
:DEGREES
36
root  -10.0655 32.7805 -22.8071 6.10885 12.4506 -3.08214
LeftUpLeg  -30.1631 18.3555 -1.04843
LeftLeg  1.33714 4.3518 -0.178164
LeftFoot  11.5008 -0.0885293 0.879095
LeftToes  -28.1519 1.92152e-006 4.03786e-008
Spine  2.91138 2.32532 0.844606
Spine1  5.8158 4.74588 1.67664
RightShoulder  0.0351949 4.63297 6.33473
RightArm  -29.6323 -14.0727 71.4942
RightForeArm  32.4327 18.7199 3.4176
RightHand  0.847957 -11.3948 -8.10933
LeftShoulder1  -0.000609757 1.70668 -8.97285
LeftArm  -26.8091 25.9524 -70.8
LeftForeArm  31.7208 -13.3992 -2.40113
LeftHand  0.068933 4.31265 1.45831
HEad  -14.9078 -16.697 0.0794188
RightUpLeg  0.769422 -4.82235 3.18793
RightLeg  18.0957 13.5929 3.45952
RightFoot  -15.5448 -0.570002 -3.7969
RightToes  -23.0417 -0.0990558 -0.200817
37
root  -9.50914 32.7236 -21.806 5.99823 10.8055 -2.03316
LeftUpLeg  -28.4011 18.9246 -1.60444
LeftLeg  2.01612 1.9387 -0.0565976
LeftFoot  15.7865 -0.0752447 0.542717
LeftToes  -28.9113 1.92152e-006 4.03786e-008
Spine  2.74087 2.61074 0.0962528
Spine1  5.45112 5.33868 0.211226
RightShoulder  0.0275553 4.65685 5.88269
RightArm  -28.7827 -14.5102 73.2191
RightForeArm  31.6412 20.8455 3.84193
RightHand  0.839982 -11.3673 -8.05023
LeftShoulder1  -0.00080062 1.78461 -9.03408
LeftArm  -27.8947 26.3158 -69.3859
LeftForeArm  31.6193 -12.1702 -2.17403
LeftHand  0.0769222 4.30212 1.67507
HEad  -14.3306 -16.7972 0.353833
RightUpLeg  2.27187 -3.84221 1.13053
RightLeg  19.6013 14.1643 3.99513
RightFoot  -16.1346 -0.639906 -4.13503
RightToes  -24.1209 -0.105602 -0.209101
38
root  -8.89728 32.7268 -20.752 5.99296 9.3364 -1.12686
LeftUpLeg  -26.1294 18.2072 -1.77685
LeftLeg  1.51168 0.454808 -0.0174081
LeftFoot  21.4665 -0.0375674 0.19818
LeftToes  -26.6838 1.92152e-006 4.03786e-008
Spine  2.37806 2.90559 -0.558507
Spine1  4.6979 5.99234 -1.10577
RightShoulder  0.0240212 4.74982 5.45182
RightArm  -27.4606 -15.5611 74.4699
RightForeArm  31.2507 22.6899 4.22012
RightHand  0.81497 -11.3046 -7.84579
LeftShoulder1  -0.000742661 2.08724 -9.37969
LeftArm  -28.5215 26.6427 -67.8078
LeftForeArm  31.1701 -11.4135 -2.03557
LeftHand  0.084815 4.09219 2.00033
HEad  -13.1379 -16.9463 0.606648
RightUpLeg  3.19387 -2.49645 -0.785867
RightLeg  21.9823 14.3036 4.67293
RightFoot  -15.7907 -0.626567 -4.13847
RightToes  -26.5443 -0.120863 -0.227245
39
root  -8.30734 32.848 -19.7362 5.89172 8.74918 0.503859
LeftUpLeg  -25.1414 16.8328 -2.90162
LeftLeg  4.65044 2.32004 0.0386815
LeftFoot  19.0269 -0.136087 0.81203
LeftToes  -22.0024 1.92152e-006 4.03786e-008
Spine  2.11409 2.97161 -1.39674
Spine1  4.12837 6.22427 -2.79809
RightShoulder  0.0201467 4.7804 5.20905
RightArm  -26.3869 -16.3172 75.6057
RightForeArm  31.4374 23.8933 4.47229
RightHand  0.772451 -11.087 -7.57177
LeftShoulder1  -0.00041279 2.28934 -9.88098
LeftArm  -28.6062 26.4126 -65.9935
LeftForeArm  30.4011 -12.0928 -2.16057
LeftHand  0.0927578 3.7825 2.38867
HEad  -12.0552 -17.4339 1.11319
RightUpLeg  3.46324 -1.19412 -3.18133
RightLeg  25.8535 13.8959 5.58891
RightFoot  -14.2504 -0.510924 -3.70822
RightToes  -31.7863 -0.156413 -0.264188
40
root  -7.73024 33.0738 -18.7373 5.29009 8.50892 1.845
LeftUpLeg  -23.1997 14.0129 -3.3529
LeftLeg  7.1404 4.9959 0.300736
LeftFoot  16.4472 -0.213659 1.47829
LeftToes  -16.0021 1.92152e-006 4.03786e-008
Spine  2.12026 3.09333 -2.10912
Spine1  4.08951 6.49856 -4.18559
RightShoulder  0.0161399 4.636 5.28335
RightArm  -25.8944 -16.7851 76.2551
RightForeArm  32.0065 24.7529 4.65511
RightHand  0.737563 -11.0592 -7.23326
LeftShoulder1  0.000212084 2.17462 -9.86796
LeftArm  -27.9889 25.2344 -64.9166
LeftForeArm  29.4007 -12.6726 -2.26794
LeftHand  0.0987806 3.60514 2.78958
HEad  -11.2324 -18.5807 1.87748
RightUpLeg  3.35413 -0.389134 -5.28114
RightLeg  31.0035 13.5802 6.9116
RightFoot  -10.8774 -0.309351 -2.87094
RightToes  -39.7695 -0.216645 -0.313817
41
root  -7.19378 33.3167 -17.7984 4.72907 7.84944 2.41934
LeftUpLeg  -20.6231 12.7805 -3.55681
LeftLeg  7.46103 6.82434 0.448862
LeftFoot  14.4554 -0.223494 1.76214
LeftToes  -15.2267 1.92152e-006 4.03786e-008
Spine  2.16494 3.32906 -2.48827
Spine1  4.14847 6.94102 -4.88687
RightShoulder  0.0128149 4.7824 5.25853
RightArm  -25.3987 -17.1038 76.3984
RightForeArm  32.4711 25.7386 4.86815
RightHand  0.726136 -11.1715 -7.04039
LeftShoulder1  0.00115505 1.93023 -9.56053
LeftArm  -27.0456 23.7311 -64.6481
LeftForeArm  28.2802 -13.4372 -2.41014
LeftHand  0.0979705 3.5755 2.76274
HEad  -10.5623 -19.5418 2.43259
RightUpLeg  1.57866 -0.257167 -6.79999
RightLeg  38.3461 13.3412 9.0529
RightFoot  -5.8868 -0.103098 -1.62756
RightToes  -47.1215 -0.277724 -0.351717
42
root  -6.69817 33.4983 -16.9434 4.24256 7.18199 2.6257
LeftUpLeg  -18.7819 14.4885 -4.1355
LeftLeg  8.18309 5.65355 0.443404
LeftFoot  12.0258 -0.128361 1.21857
LeftToes  -13.3892 1.92152e-006 4.03786e-008
Spine  2.21345 3.3663 -2.61572
Spine1  4.24466 6.96068 -5.09913
RightShoulder  0.0111056 5.10019 5.11703
RightArm  -24.3079 -17.0567 76.1526
RightForeArm  32.8866 26.8853 5.12075
RightHand  0.725814 -11.0963 -7.08743
LeftShoulder1  0.00243921 1.79682 -9.2292
LeftArm  -26.0464 22.2232 -64.7704
LeftForeArm  27.2421 -14.4752 -2.60444
LeftHand  0.0936224 3.54491 2.64959
HEad  -9.92253 -19.6597 2.65283
RightUpLeg  -1.64694 -1.57465 -8.25694
RightLeg  47.2993 12.5302 11.6513
RightFoot  -0.17758 -0.000597784 -0.00822824
RightToes  -47.4348 -0.28043 -0.353155
43
root  -6.25567 33.6156 -16.1498 3.60533 6.96053 2.587
LeftUpLeg  -17.2087 16.3665 -4.40737
LeftLeg  9.40221 3.99469 0.398748
LeftFoot  9.39263 -0.0558773 0.680167
LeftToes  -11.7472 1.92152e-006 4.03786e-008
Spine  2.29432 3.03813 -2.59036
Spine1  4.42405 6.26611 -5.03314
RightShoulder  0.010295 5.33369 4.92413
RightArm  -23.206 -16.4408 75.9672
RightForeArm  33.1372 27.6346 5.28869
RightHand  0.707612 -10.9698 -6.98504
LeftShoulder1  0.00408764 1.70265 -8.98451
LeftArm  -24.8276 20.9785 -64.7122
LeftForeArm  26.2023 -15.85 -2.86454
LeftHand  0.088782 3.22262 2.77937
HEad  -9.36207 -18.9698 2.55465
RightUpLeg  -5.0634 -3.27276 -9.1994
RightLeg  55.7121 10.3853 12.9511
RightFoot  5.66427 -0.0653087 1.69744
RightToes  -44.2784 -0.253531 -0.337993
44
root  -5.86648 33.7147 -15.4206 2.99454 7.38382 2.35246
LeftUpLeg  -15.2716 16.2157 -4.17833
LeftLeg  9.60302 3.78648 0.391315
LeftFoot  7.68232 -0.0358646 0.534151
LeftToes  -10.7957 1.92152e-006 4.03786e-008
Spine  2.42287 2.49086 -2.48634
Spine1  4.69397 5.16989 -4.80544
RightShoulder  0.0102552 5.14482 4.92871
RightArm  -22.6809 -15.4527 75.8386
RightForeArm  33.0963 28.0111 5.37412
RightHand  0.69861 -10.9138 -6.92907
LeftShoulder1  0.00796525 1.40527 -9.0576
LeftArm  -23.6497 19.4626 -64.191
LeftForeArm  25.6515 -17.1791 -3.11935
LeftHand  0.0846222 2.9306 2.93035
HEad  -8.9963 -18.2853 2.5083
RightUpLeg  -8.63439 -5.57763 -9.66977
RightLeg  62.8932 7.80832 12.7511
RightFoot  12.6866 -0.33049 3.34966
RightToes  -39.5681 -0.215042 -0.31267
